<svg width="90" height="90" viewBox="0 0 90 90" fill="none" xmlns="http://www.w3.org/2000/svg">
<circle cx="37" cy="36.5" r="36.5" fill="#F4F4F4"/>
<path d="M58.0102 17.694C58.2446 17.4597 58.2447 17.0798 58.0104 16.8455C57.7762 16.6111 57.3963 16.611 57.1619 16.8453L58.0102 17.694ZM53.773 25.0246C53.773 25.356 54.0417 25.6246 54.373 25.6246C54.7044 25.6246 54.973 25.356 54.973 25.0246H53.773ZM54.973 25.0246C54.973 24.6932 54.7044 24.4246 54.373 24.4246C54.0417 24.4246 53.773 24.6932 53.773 25.0246H54.973ZM57.1619 33.205C57.3963 33.4392 57.7762 33.4391 58.0104 33.2048C58.2447 32.9704 58.2446 32.5905 58.0102 32.3563L57.1619 33.205ZM58.0104 32.3565C57.7762 32.1221 57.3963 32.122 57.1619 32.3563C56.9275 32.5905 56.9274 32.9704 57.1617 33.2048L58.0104 32.3565ZM65.34 36.5876C65.6714 36.5876 65.94 36.319 65.94 35.9876C65.94 35.6562 65.6714 35.3876 65.34 35.3876V36.5876ZM65.34 35.3876C65.0087 35.3876 64.74 35.6562 64.74 35.9876C64.74 36.319 65.0087 36.5876 65.34 36.5876V35.3876ZM73.5203 33.2049C73.7546 32.9706 73.7546 32.5907 73.5203 32.3564C73.286 32.122 72.9061 32.122 72.6718 32.3564L73.5203 33.2049ZM72.6718 32.3564C72.4375 32.5907 72.4375 32.9706 72.6718 33.2049C72.9061 33.4392 73.286 33.4392 73.5203 33.2049L72.6718 32.3564ZM76.909 25.0246C76.909 24.6932 76.6404 24.4246 76.309 24.4246C75.9777 24.4246 75.709 24.6932 75.709 25.0246H76.909ZM75.709 25.0246C75.709 25.356 75.9777 25.6246 76.309 25.6246C76.6404 25.6246 76.909 25.356 76.909 25.0246H75.709ZM73.5203 16.8454C73.286 16.611 72.9061 16.611 72.6718 16.8454C72.4375 17.0797 72.4375 17.4596 72.6718 17.6939L73.5203 16.8454ZM72.6718 17.6939C72.9061 17.9282 73.286 17.9282 73.5203 17.6939C73.7546 17.4596 73.7546 17.0797 73.5203 16.8454L72.6718 17.6939ZM65.34 13.4576C65.0087 13.4576 64.74 13.7262 64.74 14.0576C64.74 14.389 65.0087 14.6576 65.34 14.6576V13.4576ZM65.34 14.6576C65.6714 14.6576 65.94 14.389 65.94 14.0576C65.94 13.7262 65.6714 13.4576 65.34 13.4576V14.6576ZM57.1618 16.8454C56.9275 17.0797 56.9275 17.4596 57.1618 17.6939C57.3961 17.9282 57.776 17.9282 58.0103 17.6939L57.1618 16.8454ZM59.6356 30.7307C59.8698 30.9651 60.2497 30.9653 60.4841 30.7311C60.7185 30.4969 60.7187 30.117 60.4845 29.8826L59.6356 30.7307ZM60.4845 20.1687C60.7187 19.9343 60.7186 19.5544 60.4842 19.3202C60.2498 19.086 59.8699 19.0861 59.6356 19.3205L60.4845 20.1687ZM59.6358 19.3204C59.4015 19.5547 59.4015 19.9346 59.6358 20.1689C59.8701 20.4032 60.25 20.4032 60.4843 20.1689L59.6358 19.3204ZM65.34 18.1606C65.6714 18.1606 65.94 17.892 65.94 17.5606C65.94 17.2292 65.6714 16.9606 65.34 16.9606V18.1606ZM65.34 16.9606C65.0087 16.9606 64.74 17.2292 64.74 17.5606C64.74 17.892 65.0087 18.1606 65.34 18.1606V16.9606ZM70.1968 20.1689C70.4311 20.4032 70.811 20.4032 71.0453 20.1689C71.2796 19.9346 71.2796 19.5547 71.0453 19.3204L70.1968 20.1689ZM71.0454 19.3204C70.8111 19.0861 70.4312 19.086 70.1969 19.3203C69.9625 19.5546 69.9624 19.9345 70.1967 20.1688L71.0454 19.3204ZM70.1966 29.8825C69.9624 30.1169 69.9625 30.4968 70.1969 30.731C70.4313 30.9653 70.8112 30.9651 71.0455 30.7307L70.1966 29.8825ZM71.0453 30.7309C71.2796 30.4966 71.2796 30.1167 71.0453 29.8824C70.811 29.648 70.4311 29.648 70.1968 29.8824L71.0453 30.7309ZM65.341 31.8906C65.0097 31.8906 64.741 32.1592 64.741 32.4906C64.741 32.822 65.0097 33.0906 65.341 33.0906V31.8906ZM65.341 33.0906C65.6724 33.0906 65.941 32.822 65.941 32.4906C65.941 32.1592 65.6724 31.8906 65.341 31.8906V33.0906ZM60.4843 29.8824C60.25 29.648 59.8701 29.648 59.6358 29.8824C59.4015 30.1167 59.4015 30.4966 59.6358 30.7309L60.4843 29.8824ZM55.7206 18.5954C55.5359 18.8705 55.6092 19.2433 55.8843 19.428C56.1594 19.6127 56.5322 19.5394 56.7169 19.2643L55.7206 18.5954ZM55.1693 22.9997C55.2333 22.6746 55.0216 22.3592 54.6964 22.2952C54.3713 22.2312 54.0559 22.4429 53.9919 22.768L55.1693 22.9997ZM53.9918 27.2814C54.0558 27.6066 54.3712 27.8183 54.6963 27.7543C55.0215 27.6904 55.2332 27.3749 55.1692 27.0498L53.9918 27.2814ZM56.7168 30.7858C56.5321 30.5107 56.1593 30.4374 55.8842 30.622C55.6091 30.8067 55.5357 31.1795 55.7204 31.4546L56.7168 30.7858ZM58.9132 34.6442C59.1887 34.8284 59.5613 34.7545 59.7455 34.479C59.9297 34.2036 59.8558 33.8309 59.5803 33.6467L58.9132 34.6442ZM63.3169 35.19C62.9918 35.1258 62.6762 35.3374 62.612 35.6624C62.5479 35.9875 62.7594 36.3031 63.0845 36.3673L63.3169 35.19ZM67.596 36.3673C67.9211 36.3032 68.1327 35.9876 68.0685 35.6625C68.0043 35.3374 67.6888 35.1259 67.3637 35.19L67.596 36.3673ZM71.1013 33.6467C70.8258 33.8309 70.7518 34.2035 70.936 34.479C71.1201 34.7544 71.4928 34.8284 71.7682 34.6443L71.1013 33.6467ZM74.9614 31.4544C75.1461 31.1793 75.0727 30.8065 74.7976 30.6218C74.5224 30.4372 74.1497 30.5105 73.965 30.7856L74.9614 31.4544ZM75.5128 27.0497C75.4488 27.3748 75.6604 27.6903 75.9856 27.7543C76.3107 27.8183 76.6262 27.6066 76.6902 27.2814L75.5128 27.0497ZM76.6901 22.768C76.6261 22.4429 76.3106 22.2312 75.9855 22.2952C75.6603 22.3593 75.4487 22.6747 75.5127 22.9999L76.6901 22.768ZM73.9649 19.2644C74.1496 19.5395 74.5223 19.6129 74.7975 19.4282C75.0726 19.2435 75.1459 18.8707 74.9612 18.5956L73.9649 19.2644ZM71.7698 15.4044C71.4946 15.2198 71.1219 15.2931 70.9372 15.5683C70.7526 15.8434 70.826 16.2162 71.1011 16.4008L71.7698 15.4044ZM67.3651 14.8538C67.6903 14.9177 68.0057 14.706 68.0696 14.3808C68.1336 14.0557 67.9218 13.7403 67.5967 13.6763L67.3651 14.8538ZM63.0838 13.6765C62.7587 13.7405 62.547 14.0559 62.611 14.381C62.675 14.7062 62.9904 14.9179 63.3156 14.8539L63.0838 13.6765ZM59.5806 16.4011C59.8557 16.2164 59.9291 15.8437 59.7444 15.5685C59.5598 15.2934 59.187 15.22 58.9119 15.4047L59.5806 16.4011ZM58.997 27.655C58.8706 27.3486 58.5199 27.2027 58.2135 27.3291C57.9072 27.4554 57.7613 27.8062 57.8876 28.1125L58.997 27.655ZM57.8875 21.9386C57.7611 22.2449 57.907 22.5957 58.2134 22.722C58.5197 22.8484 58.8705 22.7025 58.9968 22.3961L57.8875 21.9386ZM61.5245 19.3141C61.8 19.1299 61.874 18.7573 61.6898 18.4819C61.5056 18.2064 61.1329 18.1324 60.8575 18.3166L61.5245 19.3141ZM63.767 17.1144C63.4419 17.1786 63.2305 17.4942 63.2947 17.8193C63.3589 18.1444 63.6745 18.3559 63.9996 18.2917L63.767 17.1144ZM66.6809 18.2915C67.006 18.3557 67.3216 18.1442 67.3857 17.8191C67.4499 17.494 67.2384 17.1784 66.9133 17.1142L66.6809 18.2915ZM69.8234 18.3164C69.548 18.1322 69.1754 18.2062 68.9912 18.4816C68.8069 18.7571 68.8809 19.1297 69.1564 19.3139L69.8234 18.3164ZM71.6848 22.3961C71.8112 22.7024 72.162 22.8483 72.4683 22.7219C72.7746 22.5955 72.9205 22.2447 72.7941 21.9384L71.6848 22.3961ZM72.7939 28.1127C72.9203 27.8064 72.7745 27.4556 72.4681 27.3292C72.1618 27.2028 71.811 27.3487 71.6847 27.655L72.7939 28.1127ZM69.1565 30.7372C68.8811 30.9214 68.8072 31.294 68.9914 31.5695C69.1756 31.8449 69.5482 31.9189 69.8237 31.7347L69.1565 30.7372ZM66.9141 32.9369C67.2392 32.8727 67.4507 32.5571 67.3865 32.232C67.3223 31.9069 67.0067 31.6954 66.6816 31.7596L66.9141 32.9369ZM64.0003 31.7596C63.6752 31.6954 63.3596 31.9069 63.2954 32.232C63.2312 32.5571 63.4427 32.8727 63.7678 32.9369L64.0003 31.7596ZM60.8577 31.7348C61.1332 31.9189 61.5058 31.845 61.69 31.5695C61.8742 31.294 61.8002 30.9214 61.5247 30.7372L60.8577 31.7348ZM57.1619 16.8453C56.6203 17.3866 56.1387 17.9726 55.7206 18.5954L56.7169 19.2643C57.0914 18.7064 57.5234 18.1805 58.0102 17.694L57.1619 16.8453ZM53.9919 22.768C53.847 23.5039 53.773 24.2589 53.773 25.0246H54.973C54.973 24.3363 55.0395 23.659 55.1693 22.9997L53.9919 22.768ZM53.773 25.0246C53.773 25.7904 53.847 26.5455 53.9918 27.2814L55.1692 27.0498C55.0395 26.3905 54.973 25.7131 54.973 25.0246H53.773ZM55.7204 31.4546C56.1386 32.0775 56.6203 32.6636 57.1619 33.205L58.0102 32.3563C57.5234 31.8696 57.0913 31.3437 56.7168 30.7858L55.7204 31.4546ZM57.1617 33.2048C57.707 33.7503 58.2942 34.2302 58.9132 34.6442L59.5803 33.6467C59.0261 33.2761 58.4998 32.8461 58.0104 32.3565L57.1617 33.2048ZM63.0845 36.3673C63.8286 36.5142 64.5844 36.5876 65.34 36.5876V35.3876C64.6621 35.3876 63.9842 35.3217 63.3169 35.19L63.0845 36.3673ZM65.34 36.5876C66.0959 36.5876 66.8518 36.5142 67.596 36.3673L67.3637 35.19C66.6963 35.3217 66.0182 35.3876 65.34 35.3876V36.5876ZM71.7682 34.6443C72.3874 34.2303 72.9748 33.7504 73.5203 33.2049L72.6718 32.3564C72.1821 32.846 71.6556 33.2761 71.1013 33.6467L71.7682 34.6443ZM73.5203 33.2049C74.0617 32.6635 74.5433 32.0773 74.9614 31.4544L73.965 30.7856C73.5905 31.3436 73.1585 31.8697 72.6718 32.3564L73.5203 33.2049ZM76.6902 27.2814C76.835 26.5455 76.909 25.7904 76.909 25.0246H75.709C75.709 25.713 75.6425 26.3904 75.5128 27.0497L76.6902 27.2814ZM76.909 25.0246C76.909 24.2589 76.835 23.5039 76.6901 22.768L75.5127 22.9999C75.6425 23.6591 75.709 24.3364 75.709 25.0246H76.909ZM74.9612 18.5956C74.5432 17.9728 74.0616 17.3867 73.5203 16.8454L72.6718 17.6939C73.1584 18.1805 73.5904 18.7065 73.9649 19.2644L74.9612 18.5956ZM73.5203 16.8454C72.9789 16.3039 72.3927 15.8224 71.7698 15.4044L71.1011 16.4008C71.6591 16.7753 72.1851 17.2072 72.6718 17.6939L73.5203 16.8454ZM67.5967 13.6763C66.8608 13.5316 66.1058 13.4576 65.34 13.4576V14.6576C66.0284 14.6576 66.7059 14.7241 67.3651 14.8538L67.5967 13.6763ZM65.34 13.4576C64.5745 13.4576 63.8197 13.5316 63.0838 13.6765L63.3156 14.8539C63.9747 14.7241 64.652 14.6576 65.34 14.6576V13.4576ZM58.9119 15.4047C58.2892 15.8226 57.7031 16.3041 57.1618 16.8454L58.0103 17.6939C58.4969 17.2073 59.0228 16.7755 59.5806 16.4011L58.9119 15.4047ZM60.4845 29.8826C59.8266 29.224 59.3311 28.465 58.997 27.655L57.8876 28.1125C58.2808 29.0657 58.8638 29.9581 59.6356 30.7307L60.4845 29.8826ZM58.9968 22.3961C59.3309 21.5861 59.8264 20.8272 60.4845 20.1687L59.6356 19.3205C58.8637 20.0929 58.2806 20.9853 57.8875 21.9386L58.9968 22.3961ZM60.4843 20.1689C60.8088 19.8444 61.1575 19.5596 61.5245 19.3141L60.8575 18.3166C60.4257 18.6054 60.0161 18.94 59.6358 19.3204L60.4843 20.1689ZM63.9996 18.2917C64.4417 18.2043 64.8909 18.1606 65.34 18.1606V16.9606C64.8132 16.9606 64.2861 17.0119 63.767 17.1144L63.9996 18.2917ZM65.34 18.1606C65.7895 18.1606 66.2388 18.2043 66.6809 18.2915L66.9133 17.1142C66.3942 17.0118 65.8671 16.9606 65.34 16.9606V18.1606ZM69.1564 19.3139C69.5234 19.5594 69.8722 19.8443 70.1968 20.1689L71.0453 19.3204C70.6649 18.94 70.2553 18.6053 69.8234 18.3164L69.1564 19.3139ZM70.1967 20.1688C70.8549 20.8272 71.3506 21.5861 71.6848 22.3961L72.7941 21.9384C72.4008 20.9851 71.8175 20.0928 71.0454 19.3204L70.1967 20.1688ZM71.6847 27.655C71.3504 28.465 70.8548 29.2239 70.1966 29.8825L71.0455 30.7307C71.8174 29.9582 72.4006 29.0659 72.7939 28.1127L71.6847 27.655ZM70.1968 29.8824C69.8723 30.2069 69.5235 30.4917 69.1565 30.7372L69.8237 31.7347C70.2554 31.4459 70.665 31.1112 71.0453 30.7309L70.1968 29.8824ZM66.6816 31.7596C66.2395 31.8469 65.7903 31.8906 65.341 31.8906V33.0906C65.868 33.0906 66.3951 33.0394 66.9141 32.9369L66.6816 31.7596ZM65.341 31.8906C64.8918 31.8906 64.4425 31.8469 64.0003 31.7596L63.7678 32.9369C64.2869 33.0394 64.814 33.0906 65.341 33.0906V31.8906ZM61.5247 30.7372C61.1576 30.4917 60.8088 30.2069 60.4843 29.8824L59.6358 30.7309C60.0162 31.1113 60.4258 31.446 60.8577 31.7348L61.5247 30.7372Z" fill="#121312"/>
<path fill-rule="evenodd" clip-rule="evenodd" d="M70.0433 67.2478L52.9283 84.3618C52.4198 84.8689 51.878 85.091 51.2114 85.091C50.906 85.091 50.6792 85.0122 50.5286 84.9518L50.4429 84.9175L50.3525 84.8994L50.3463 84.8979C50.3388 84.896 50.3235 84.8917 50.2946 84.8823C49.4686 84.6073 48.7664 83.6408 48.7664 82.647V82.6343L48.47 70.9451L43.3373 76.0779C42.7897 76.6254 42.067 76.925 41.2924 76.925C40.5186 76.925 39.795 76.6253 39.2475 76.0779L36.9086 73.7389L28.3658 77.541L28.3643 77.5417C28.2633 77.586 28.1583 77.607 28.0574 77.607C27.8635 77.607 27.6714 77.5307 27.5275 77.3868L12.9785 62.8388L12.9771 62.8375C12.7594 62.6206 12.6971 62.2883 12.8241 62.0034L16.6263 53.4567L14.2885 51.1189C13.162 49.9923 13.1624 48.1559 14.2881 47.0294C14.9513 46.3651 15.6381 45.6781 16.3434 44.9727L16.3447 44.9714L16.3592 44.9569C16.823 44.4931 17.2947 44.0213 17.7728 43.5428L19.4192 41.8951L7.68801 41.599H7.67265C6.73493 41.5997 5.76216 40.905 5.48385 40.0721L5.4816 40.0653L5.47925 40.0586C5.47524 40.0472 5.46877 40.0256 5.45905 39.9833L5.44203 39.9091L5.41399 39.8384C5.34813 39.6723 5.27539 39.4497 5.27539 39.156C5.27539 38.4844 5.49859 37.9432 6.00348 37.4391L23.1199 20.3237C23.7525 19.6903 24.3331 19.595 24.6664 19.595C24.7046 19.595 24.7457 19.5983 24.7865 19.6049L24.849 19.6151L33.2682 19.9113C33.6831 19.9259 34.0065 20.2738 33.992 20.6871C33.9779 21.0917 33.6447 21.411 33.2434 21.411L33.2308 21.411L33.2258 21.4109L33.2243 21.4109L33.2155 21.4106L24.47 21.1033L5.53519 40.0259L20.8816 40.433L21.1856 40.129C27.8111 33.502 35.1997 26.1126 40.956 20.3582C43.8342 17.481 46.3041 15.0126 48.0665 13.2528C48.9477 12.3728 49.6518 11.6702 50.1414 11.1822C50.3863 10.9381 50.5772 10.7482 50.7097 10.6167C50.7791 10.5478 50.8268 10.5007 50.8568 10.471C50.8905 10.4377 50.9023 10.4261 50.8969 10.431L50.9005 10.4277C55.6348 6.09485 63.7249 3.49965 71.2239 2.48722C74.9518 1.98393 78.4708 1.88072 81.2694 2.13066C82.6697 2.25572 83.8654 2.46711 84.8061 2.74926C85.7685 3.03792 86.3663 3.37222 86.6715 3.67726C86.9793 3.98496 87.3154 4.58521 87.6057 5.54876C87.8896 6.4909 88.1025 7.68788 88.2288 9.0893C88.4813 11.8901 88.3798 15.4108 87.8775 19.1401C86.8671 26.6403 84.2716 34.7308 79.9373 39.469C79.9403 39.4656 79.8834 39.5235 79.7346 39.6732C79.5955 39.8131 79.3947 40.0146 79.1374 40.2726C78.623 40.7885 77.8838 41.5288 76.9634 42.4503C75.1226 44.293 72.5573 46.8595 69.6157 49.8018C63.7325 55.6864 56.3443 63.0738 50.2363 69.1808L49.9328 69.4842L50.3217 84.8424L69.2651 65.9046L68.9568 57.1508L68.9567 57.1498C68.9418 56.7377 69.2645 56.3894 69.6806 56.3743L69.6893 56.374C70.0806 56.3564 70.4412 56.6786 70.456 57.098L70.7522 65.5373L70.7621 65.5988C70.7678 65.634 70.7704 65.6679 70.7704 65.701C70.7704 66.0342 70.6745 66.6167 70.0433 67.2478ZM42.2717 75.0218L42.2754 75.0182C54.6903 62.6073 78.3217 38.979 78.8351 38.4514L78.8458 38.4404L78.8561 38.4291C83.361 33.5066 85.5413 25.7613 86.3963 19.086C86.8267 15.7255 86.9286 12.5795 86.8054 10.1088C86.7439 8.87493 86.6254 7.79146 86.4576 6.92465C86.3004 6.11275 86.0714 5.32361 85.6898 4.82626L85.6089 4.72089L85.5034 4.64026C85.1745 4.38903 84.7405 4.22005 84.3141 4.09571C83.8659 3.96502 83.3306 3.85724 82.732 3.77084C81.533 3.59782 80.0114 3.50096 78.2854 3.50096C74.4799 3.50096 69.5883 3.9711 64.8136 5.19779C60.0525 6.42097 55.3156 8.41982 51.9081 11.5394L51.8974 11.5492L51.8869 11.5594C51.3697 12.0614 27.7504 35.6837 15.3482 48.0889L15.346 48.0912C14.8065 48.6342 14.8065 49.5128 15.346 50.0557L37.5849 72.2937C37.5928 72.3022 37.6009 72.3107 37.6093 72.3191L40.3073 75.0171L40.3129 75.0226C40.502 75.2088 40.8317 75.4515 41.2925 75.4515C41.7542 75.4515 42.0835 75.208 42.2717 75.0218ZM14.4033 62.1432L28.2232 75.9619L35.7726 72.603L17.7635 54.5939L14.4033 62.1432Z" fill="#121312"/>
<path fill-rule="evenodd" clip-rule="evenodd" d="M1.72087 88.4979L1.71932 88.4964C1.42653 88.204 1.42708 87.7294 1.71986 87.4371L14.9359 74.2201C15.2296 73.9263 15.704 73.9271 15.9961 74.2196L15.9971 74.2206C16.2896 74.5127 16.2904 74.9871 15.9966 75.2809L2.77965 88.4969L2.77859 88.4979C2.6331 88.6438 2.4434 88.717 2.24973 88.717C2.05606 88.717 1.86635 88.6438 1.72087 88.4979Z" fill="#121312"/>
<path d="M2.57633 76.2857L2.57477 76.2841C2.28199 75.9918 2.28256 75.5171 2.57534 75.2248L9.18309 68.616C9.47657 68.3233 9.95068 68.3233 10.2442 68.616C10.5366 68.9095 10.5362 69.3837 10.2436 69.6771L3.63513 76.2846L3.63404 76.2857C3.48856 76.4316 3.29885 76.5047 3.10518 76.5047C2.91151 76.5047 2.72181 76.4316 2.57633 76.2857Z" fill="#121312"/>
<path d="M14.0819 87.7935L14.0803 87.7919C13.7876 87.4996 13.7881 87.025 14.0809 86.7326L20.6887 80.1239C20.9821 79.8311 21.4563 79.8311 21.7498 80.1238C22.0422 80.4173 22.0417 80.8915 21.7491 81.185L15.1407 87.7924L15.1396 87.7935C14.9941 87.9394 14.8044 88.0125 14.6108 88.0125C14.4171 88.0125 14.2274 87.9394 14.0819 87.7935Z" fill="#121312"/>
</svg>
